<?xml version="1.0" encoding="utf-8"?>
<!-- Generator: Adobe Illustrator 19.0.1, SVG Export Plug-In . SVG Version: 6.00 Build 0)  -->
<svg version="1.1" id="Capa_1" xmlns="http://www.w3.org/2000/svg" xmlns:xlink="http://www.w3.org/1999/xlink" x="0px" y="0px"
	 viewBox="0 0 364.5 67.8" style="enable-background:new 0 0 364.5 67.8;" xml:space="preserve">
<style type="text/css">
	.st0{fill:#FFFFFF;}
</style>
<g>
	<g>
		<path class="st0" d="M80.7,59h-0.1c-0.6,0-0.9-0.4-0.9-0.9V9.6c0-0.4,0.3-0.9,0.9-0.9h0.1h0.1h26.7c0.5,0,0.9,0.4,0.9,0.9
			c0,0.5-0.4,0.9-0.9,0.9H81.5v22.4h22.8c0.5,0,0.9,0.4,0.9,0.9c0,0.6-0.4,0.9-0.9,0.9H81.5v22.5h25.9c0.5,0,0.9,0.4,0.9,0.9
			s-0.4,0.9-0.9,0.9H80.7L80.7,59z"/>
		<path class="st0" d="M120.4,57.6l17.2-23.6l-17.2-23.7c-0.3-0.4-0.3-0.9,0.1-1.2c0.4-0.3,1-0.2,1.3,0.1l16.9,23.2l17-23.2
			c0.3-0.4,0.9-0.4,1.3-0.1c0.4,0.3,0.4,0.9,0.2,1.2l-17.3,23.7l17.3,23.6c0.2,0.4,0.1,0.9-0.2,1.2c-0.2,0.1-0.4,0.2-0.6,0.2
			s-0.5-0.2-0.7-0.4l-17-23.2l-16.9,23.2c-0.2,0.1-0.4,0.4-0.7,0.4c-0.2,0-0.4-0.1-0.6-0.2C120.1,58.4,120.1,57.9,120.4,57.6z"/>
		<path class="st0" d="M174.3,9.6c0-0.5,0.4-0.9,0.9-0.9h0.1h14.6c7.7,0,14,6.2,14,14c0,7.8-6.3,13.9-14,13.9h-13.9v21.4
			c0,0.5-0.4,0.9-0.9,0.9s-0.9-0.4-0.9-0.9V9.6z M189.9,34.8c6.7,0,12.1-5.3,12.1-12.1c0-6.8-5.5-12.2-12.1-12.2h-13.9v24.3H189.9z"
			/>
		<path class="st0" d="M217.2,59h-0.1c-0.6,0-0.9-0.4-0.9-0.9V9.6c0-0.4,0.3-0.9,0.9-0.9h0.1h0.1h26.7c0.5,0,0.9,0.4,0.9,0.9
			c0,0.5-0.4,0.9-0.9,0.9H218v22.4h22.8c0.5,0,0.9,0.4,0.9,0.9c0,0.6-0.4,0.9-0.9,0.9H218v22.5h25.9c0.5,0,0.9,0.4,0.9,0.9
			s-0.4,0.9-0.9,0.9H217.2L217.2,59z"/>
		<path class="st0" d="M260.6,12.4v45.6c0,0.5-0.4,0.9-0.9,0.9c-0.4,0-0.9-0.4-0.9-0.9V10V9.8c0-0.3,0.1-0.6,0.4-0.8
			c0.5-0.3,1-0.2,1.3,0.1l33.2,46.1V10c0-0.5,0.5-0.9,0.9-0.9c0.5,0,0.9,0.4,0.9,0.9v48.1c0,0.5-0.4,0.9-0.9,0.9
			c-0.4,0-0.7-0.2-0.9-0.6c-0.1,0-0.1,0-0.1-0.1L260.6,12.4z"/>
		<path class="st0" d="M311.5,52.1c-0.4-0.4-0.4-0.9-0.1-1.3c0.4-0.4,0.9-0.4,1.3-0.1c0.1,0.1,7.6,6.8,17.5,6.8
			c9.7,0,17.3-5.5,17.3-12.4c0-8-7.7-9.8-15.8-11.6c-8.3-1.9-17-4-17-13.2c0-6.5,7-11.9,15.6-11.9c9.9,0,15.1,5.8,15.3,6.1
			c0.4,0.4,0.3,0.9-0.1,1.3c-0.4,0.3-1,0.3-1.3-0.1c-0.1-0.1-4.9-5.5-13.9-5.5c-7.5,0-13.7,4.5-13.7,10.1c0,7.7,7.5,9.5,15.5,11.4
			c8.5,1.9,17.2,4,17.2,13.4c0,8-8.3,14.2-19,14.2C319.7,59.4,311.8,52.4,311.5,52.1z"/>
		<path class="st0" d="M362.7,9.6c0-0.6,0.4-0.9,0.9-0.9c0.4,0,0.9,0.4,0.9,0.9v48.4c0,0.6-0.4,0.9-0.9,0.9c-0.6,0-0.9-0.4-0.9-0.9
			V9.6z"/>
	</g>
	<g>
		<polygon class="st0" points="57.2,53.9 46.7,47.8 33.1,55.6 33.1,67.8 		"/>
		<polygon class="st0" points="33.1,36.5 33.1,48.7 57.2,34.8 46.6,28.7 		"/>
		<polygon class="st0" points="0,52.1 27.1,67.8 27.1,36.5 0,20.8 		"/>
		<polygon class="st0" points="30.1,31.3 57.2,15.6 30.1,0 3,15.6 		"/>
	</g>
</g>
</svg>
