<?xml version="1.0" encoding="utf-8"?>
<!-- Generator: Adobe Illustrator 19.0.1, SVG Export Plug-In . SVG Version: 6.00 Build 0)  -->
<svg version="1.1" id="Capa_1" xmlns="http://www.w3.org/2000/svg" xmlns:xlink="http://www.w3.org/1999/xlink" x="0px" y="0px"
	 viewBox="0 0 364.7 192.9" style="enable-background:new 0 0 364.7 192.9;" xml:space="preserve">
<style type="text/css">
	.st0{fill:#FFFFFF;}
</style>
<g>
	<g>
		<path class="st0" d="M1.3,192.4H1.1c-0.7,0-1.1-0.6-1.1-1.2v-62c0-0.6,0.4-1.1,1.1-1.2h0.1h0.1h34.1c0.6,0,1.1,0.6,1.1,1.2
			c0,0.6-0.5,1.1-1.1,1.1H2.3V159h29.2c0.6,0,1.1,0.5,1.1,1.1c0,0.7-0.5,1.2-1.1,1.2H2.3v28.8h33.1c0.6,0,1.1,0.5,1.1,1.1
			c0,0.6-0.5,1.2-1.1,1.2H1.3L1.3,192.4z"/>
		<path class="st0" d="M52.1,190.6l22.1-30.3l-22.1-30.4c-0.4-0.5-0.4-1.2,0.2-1.6c0.5-0.4,1.3-0.3,1.7,0.2l21.6,29.7l21.7-29.7
			c0.4-0.5,1.1-0.6,1.7-0.2c0.5,0.4,0.6,1.1,0.3,1.6l-22.2,30.4l22.2,30.3c0.3,0.5,0.2,1.1-0.3,1.6c-0.3,0.2-0.5,0.3-0.7,0.3
			c-0.3,0-0.6-0.3-0.9-0.5l-21.7-29.7L54,191.9c-0.3,0.2-0.6,0.5-0.9,0.5c-0.3,0-0.5-0.1-0.7-0.3C51.8,191.7,51.8,191,52.1,190.6z"
			/>
		<path class="st0" d="M121.1,129.2c0-0.6,0.5-1.2,1.2-1.2h0.2h18.7c9.8,0,17.9,8,17.9,17.9c0,9.9-8.1,17.9-17.9,17.9h-17.8v27.4
			c0,0.6-0.5,1.2-1.1,1.2c-0.6,0-1.2-0.6-1.2-1.2V129.2z M141.2,161.4c8.6,0,15.6-6.8,15.6-15.5c0-8.7-7-15.6-15.6-15.6h-17.8v31.1
			H141.2z"/>
		<path class="st0" d="M176.1,192.4h-0.2c-0.7,0-1.1-0.6-1.1-1.2v-62c0-0.6,0.4-1.1,1.1-1.2h0.1h0.1h34.1c0.6,0,1.1,0.6,1.1,1.2
			c0,0.6-0.5,1.1-1.1,1.1h-33.1V159h29.2c0.6,0,1.1,0.5,1.1,1.1c0,0.7-0.5,1.2-1.1,1.2h-29.2v28.8h33.1c0.6,0,1.1,0.5,1.1,1.1
			c0,0.6-0.5,1.2-1.1,1.2H176.1L176.1,192.4z"/>
		<path class="st0" d="M231.7,132.8v58.4c0,0.6-0.5,1.2-1.1,1.2c-0.6,0-1.2-0.6-1.2-1.2v-61.6v-0.3c0-0.4,0.2-0.7,0.5-1
			c0.6-0.4,1.3-0.3,1.7,0.2l42.5,59.1v-58c0-0.6,0.6-1.2,1.2-1.2c0.6,0,1.1,0.6,1.1,1.2v61.6c0,0.6-0.5,1.2-1.1,1.2
			c-0.5,0-0.9-0.3-1.1-0.7c-0.1,0-0.1,0-0.1-0.1L231.7,132.8z"/>
		<path class="st0" d="M296.9,183.6c-0.5-0.5-0.5-1.2-0.1-1.7c0.5-0.5,1.2-0.6,1.7-0.1c0.1,0.1,9.8,8.7,22.4,8.7
			c12.4,0,22.1-7,22.1-15.9c0-10.2-9.8-12.5-20.2-14.9c-10.7-2.5-21.7-5.1-21.7-16.8c0-8.4,8.9-15.3,20-15.3
			c12.7,0,19.3,7.5,19.6,7.8c0.5,0.5,0.4,1.2-0.1,1.7c-0.5,0.4-1.3,0.4-1.7-0.1c-0.1-0.1-6.3-7-17.9-7c-9.7,0-17.6,5.8-17.6,12.9
			c0,9.9,9.7,12.2,19.9,14.5c10.9,2.5,22,5.1,22,17.2c0,10.2-10.7,18.2-24.4,18.2C307.3,192.9,297.2,183.9,296.9,183.6z"/>
		<path class="st0" d="M362.4,129.2c0-0.7,0.5-1.2,1.2-1.2c0.5,0,1.1,0.5,1.1,1.2v62c0,0.7-0.6,1.2-1.1,1.2c-0.7,0-1.2-0.5-1.2-1.2
			V129.2z"/>
	</g>
	<g>
		<polygon class="st0" points="217.1,69 203.6,61.2 186.2,71.2 186.2,86.8 		"/>
		<polygon class="st0" points="186.2,46.7 186.2,62.3 217.1,44.5 203.6,36.7 		"/>
		<polygon class="st0" points="143.8,66.8 178.5,86.8 178.5,46.7 143.8,26.7 		"/>
		<polygon class="st0" points="182.4,40.1 217.1,20 182.4,0 147.7,20 		"/>
	</g>
</g>
</svg>
